<mxfile host="app.diagrams.net" modified="2024-02-23T03:18:08.179Z" agent="Mozilla/5.0 (Windows NT 10.0; Win64; x64; rv:122.0) Gecko/20100101 Firefox/122.0" etag="vD0hw6whmj-6SCrRzrmr" version="23.1.5" type="github">
  <diagram name="第 1 页" id="r59d_sr4X1508GLzZ14k">
    <mxGraphModel dx="1434" dy="754" grid="1" gridSize="10" guides="1" tooltips="1" connect="1" arrows="1" fold="1" page="1" pageScale="1" pageWidth="827" pageHeight="1169" math="0" shadow="0">
      <root>
        <mxCell id="0" />
        <mxCell id="1" parent="0" />
        <object label="Actor" id="UeqptkkxjQLyiw74k_jr-1">
          <mxCell style="shape=umlActor;verticalLabelPosition=bottom;verticalAlign=top;html=1;outlineConnect=0;" parent="1" vertex="1">
            <mxGeometry x="70" y="390" width="40" height="80" as="geometry" />
          </mxCell>
        </object>
        <mxCell id="UeqptkkxjQLyiw74k_jr-2" value="消息框架" style="whiteSpace=wrap;html=1;aspect=fixed;" parent="1" vertex="1">
          <mxGeometry x="640" y="638" width="90" height="90" as="geometry" />
        </mxCell>
        <mxCell id="UeqptkkxjQLyiw74k_jr-3" value="客户端" style="shape=parallelogram;perimeter=parallelogramPerimeter;whiteSpace=wrap;html=1;fixedSize=1;" parent="1" vertex="1">
          <mxGeometry x="230" y="400" width="150" height="60" as="geometry" />
        </mxCell>
        <mxCell id="UeqptkkxjQLyiw74k_jr-7" value="消息发送方" style="shape=parallelogram;perimeter=parallelogramPerimeter;whiteSpace=wrap;html=1;fixedSize=1;" parent="1" vertex="1">
          <mxGeometry x="240" y="780" width="130" height="60" as="geometry" />
        </mxCell>
        <mxCell id="UeqptkkxjQLyiw74k_jr-9" value="" style="shape=flexArrow;endArrow=classic;html=1;rounded=0;" parent="1" edge="1">
          <mxGeometry width="50" height="50" relative="1" as="geometry">
            <mxPoint x="130" y="430" as="sourcePoint" />
            <mxPoint x="220" y="430" as="targetPoint" />
          </mxGeometry>
        </mxCell>
        <mxCell id="UeqptkkxjQLyiw74k_jr-14" value="" style="shape=flexArrow;endArrow=classic;html=1;rounded=0;" parent="1" edge="1">
          <mxGeometry width="50" height="50" relative="1" as="geometry">
            <mxPoint x="380" y="810" as="sourcePoint" />
            <mxPoint x="620" y="710" as="targetPoint" />
          </mxGeometry>
        </mxCell>
        <mxCell id="UeqptkkxjQLyiw74k_jr-15" value="发送消息/通知消息框架待办消息已处理" style="text;html=1;align=center;verticalAlign=middle;resizable=0;points=[];autosize=1;strokeColor=none;fillColor=none;" parent="1" vertex="1">
          <mxGeometry x="440" y="780" width="230" height="30" as="geometry" />
        </mxCell>
        <mxCell id="UeqptkkxjQLyiw74k_jr-16" value="数据库" style="shape=cylinder3;whiteSpace=wrap;html=1;boundedLbl=1;backgroundOutline=1;size=15;" parent="1" vertex="1">
          <mxGeometry x="1000" y="770" width="60" height="80" as="geometry" />
        </mxCell>
        <mxCell id="UeqptkkxjQLyiw74k_jr-17" value="" style="shape=flexArrow;endArrow=classic;html=1;rounded=0;" parent="1" edge="1">
          <mxGeometry width="50" height="50" relative="1" as="geometry">
            <mxPoint x="750" y="690" as="sourcePoint" />
            <mxPoint x="980" y="820" as="targetPoint" />
          </mxGeometry>
        </mxCell>
        <mxCell id="UeqptkkxjQLyiw74k_jr-18" value="保存到数据库" style="text;html=1;align=center;verticalAlign=middle;resizable=0;points=[];autosize=1;strokeColor=none;fillColor=none;" parent="1" vertex="1">
          <mxGeometry x="870" y="720" width="100" height="30" as="geometry" />
        </mxCell>
        <mxCell id="UeqptkkxjQLyiw74k_jr-19" value="第三方系统" style="ellipse;shape=cloud;whiteSpace=wrap;html=1;" parent="1" vertex="1">
          <mxGeometry x="1110" y="540" width="120" height="80" as="geometry" />
        </mxCell>
        <mxCell id="UeqptkkxjQLyiw74k_jr-20" value="第三方消息插件" style="ellipse;whiteSpace=wrap;html=1;" parent="1" vertex="1">
          <mxGeometry x="850" y="545" width="120" height="80" as="geometry" />
        </mxCell>
        <mxCell id="UeqptkkxjQLyiw74k_jr-21" value="" style="shape=flexArrow;endArrow=classic;html=1;rounded=0;" parent="1" edge="1">
          <mxGeometry width="50" height="50" relative="1" as="geometry">
            <mxPoint x="740" y="660" as="sourcePoint" />
            <mxPoint x="840" y="620" as="targetPoint" />
          </mxGeometry>
        </mxCell>
        <mxCell id="UeqptkkxjQLyiw74k_jr-22" value="" style="shape=flexArrow;endArrow=classic;html=1;rounded=0;" parent="1" edge="1">
          <mxGeometry width="50" height="50" relative="1" as="geometry">
            <mxPoint x="980" y="579.5" as="sourcePoint" />
            <mxPoint x="1110" y="579.5" as="targetPoint" />
          </mxGeometry>
        </mxCell>
        <mxCell id="UeqptkkxjQLyiw74k_jr-24" value="获取消息" style="text;html=1;align=center;verticalAlign=middle;resizable=0;points=[];autosize=1;strokeColor=none;fillColor=none;" parent="1" vertex="1">
          <mxGeometry x="525" y="578" width="70" height="30" as="geometry" />
        </mxCell>
        <mxCell id="AiggAyatuC1ZUFrIRWaJ-1" value="newsfeed" style="shape=parallelogram;perimeter=parallelogramPerimeter;whiteSpace=wrap;html=1;fixedSize=1;" vertex="1" parent="1">
          <mxGeometry x="600" y="400" width="150" height="60" as="geometry" />
        </mxCell>
        <mxCell id="AiggAyatuC1ZUFrIRWaJ-3" value="" style="shape=flexArrow;endArrow=classic;html=1;rounded=0;" edge="1" parent="1">
          <mxGeometry width="50" height="50" relative="1" as="geometry">
            <mxPoint x="690" y="630" as="sourcePoint" />
            <mxPoint x="690" y="470" as="targetPoint" />
          </mxGeometry>
        </mxCell>
        <mxCell id="AiggAyatuC1ZUFrIRWaJ-4" value="" style="shape=flexArrow;endArrow=classic;html=1;rounded=0;" edge="1" parent="1">
          <mxGeometry width="50" height="50" relative="1" as="geometry">
            <mxPoint x="500" y="590" as="sourcePoint" />
            <mxPoint x="620" y="670" as="targetPoint" />
          </mxGeometry>
        </mxCell>
        <mxCell id="AiggAyatuC1ZUFrIRWaJ-5" value="消息推送" style="text;html=1;align=center;verticalAlign=middle;resizable=0;points=[];autosize=1;strokeColor=none;fillColor=none;" vertex="1" parent="1">
          <mxGeometry x="675" y="528" width="70" height="30" as="geometry" />
        </mxCell>
        <mxCell id="AiggAyatuC1ZUFrIRWaJ-6" value="" style="shape=flexArrow;endArrow=classic;html=1;rounded=0;" edge="1" parent="1">
          <mxGeometry width="50" height="50" relative="1" as="geometry">
            <mxPoint x="580" y="430" as="sourcePoint" />
            <mxPoint x="400" y="430" as="targetPoint" />
          </mxGeometry>
        </mxCell>
        <mxCell id="AiggAyatuC1ZUFrIRWaJ-7" value="告知客户端获取消息" style="text;html=1;align=center;verticalAlign=middle;resizable=0;points=[];autosize=1;strokeColor=none;fillColor=none;" vertex="1" parent="1">
          <mxGeometry x="435" y="428" width="130" height="30" as="geometry" />
        </mxCell>
        <mxCell id="AiggAyatuC1ZUFrIRWaJ-8" value="模板消息模块" style="shape=parallelogram;perimeter=parallelogramPerimeter;whiteSpace=wrap;html=1;fixedSize=1;" vertex="1" parent="1">
          <mxGeometry x="340" y="548" width="150" height="60" as="geometry" />
        </mxCell>
        <mxCell id="AiggAyatuC1ZUFrIRWaJ-9" value="" style="shape=flexArrow;endArrow=classic;html=1;rounded=0;" edge="1" parent="1">
          <mxGeometry width="50" height="50" relative="1" as="geometry">
            <mxPoint x="270" y="470" as="sourcePoint" />
            <mxPoint x="350" y="530" as="targetPoint" />
          </mxGeometry>
        </mxCell>
        <mxCell id="AiggAyatuC1ZUFrIRWaJ-10" value="获取消息" style="text;html=1;align=center;verticalAlign=middle;resizable=0;points=[];autosize=1;strokeColor=none;fillColor=none;" vertex="1" parent="1">
          <mxGeometry x="255" y="498" width="70" height="30" as="geometry" />
        </mxCell>
      </root>
    </mxGraphModel>
  </diagram>
</mxfile>
